<svg width="40" height="40" viewBox="0 0 40 40" fill="none" xmlns="http://www.w3.org/2000/svg">
<g clip-path="url(#clip0_501_25)">
<path d="M29.6245 18.1043C29.2123 17.4439 28.4903 17.0351 27.7118 17.0351H22.196L28.0165 3.12238C28.3072 2.4264 28.2317 1.63235 27.8134 1.00492C27.3942 0.377498 26.6913 0 25.9372 0H18.6094C17.6114 0 16.7323 0.660404 16.4485 1.61673L10.1283 22.9345C9.92607 23.6166 10.0571 24.3464 10.4832 24.9166C10.9084 25.4867 11.5775 25.8148 12.2891 25.8148H18.1963L17.1645 38.0561C17.0924 38.9126 17.64 39.7032 18.4688 39.934C19.2976 40.1631 20.1714 39.7718 20.5507 39.0003L29.7338 20.2903C30.0775 19.5934 30.035 18.7647 29.6245 18.1043Z" fill="#F27A1A" stroke="#F27A1A" stroke-width="1.3885"/>
</g>
<defs>
<clipPath id="clip0_501_25">
<rect width="40" height="40" fill="white"/>
</clipPath>
</defs>
</svg>
